<?xml version="1.0" standalone="no"?>
<!DOCTYPE svg PUBLIC "-//W3C//DTD SVG 20010904//EN"
 "http://www.w3.org/TR/2001/REC-SVG-20010904/DTD/svg10.dtd">
<svg version="1.0" xmlns="http://www.w3.org/2000/svg"
 width="480.000000pt" height="480.000000pt" viewBox="0 0 480.000000 480.000000"
 preserveAspectRatio="xMidYMid meet">
<metadata>
Created by potrace 1.11, written by Peter Selinger 2001-2013
</metadata>
<g transform="translate(0.000000,480.000000) scale(0.100000,-0.100000)"
fill="#000000" stroke="none">
<path d="M2155 4731 c-27 -5 -67 -16 -89 -25 -21 -9 -49 -16 -61 -16 -31 0
-86 -24 -121 -53 -37 -30 -102 -67 -117 -67 -17 0 -125 -57 -164 -86 -17 -13
-38 -24 -45 -24 -8 0 -25 -13 -38 -30 -14 -16 -33 -29 -42 -30 -9 0 -23 -8
-30 -18 -7 -10 -25 -27 -40 -36 -16 -10 -28 -22 -28 -28 0 -9 -11 -25 -46 -63
-12 -13 -19 -26 -16 -30 3 -3 -6 -16 -20 -28 -15 -13 -30 -36 -34 -53 -4 -16
-15 -43 -25 -61 -12 -21 -15 -35 -8 -39 7 -4 5 -12 -5 -22 -8 -10 -17 -33 -19
-52 -3 -19 -6 -35 -7 -35 -6 0 -10 -129 -11 -330 -2 -193 1 -240 16 -293 10
-34 22 -65 26 -68 5 -3 9 -10 9 -15 0 -5 -14 -2 -31 7 -25 12 -37 13 -55 5
-35 -16 -40 -53 -14 -107 13 -27 26 -78 31 -124 8 -79 53 -257 89 -353 11 -28
20 -62 20 -75 0 -12 7 -34 16 -47 9 -13 13 -29 9 -35 -3 -6 -1 -26 5 -45 13
-38 41 -52 85 -41 22 6 27 0 59 -63 19 -37 62 -113 95 -169 34 -55 61 -110 61
-121 0 -12 -16 -36 -36 -53 -73 -64 -143 -177 -179 -288 -10 -30 -22 -61 -28
-68 -6 -8 -85 -51 -176 -96 -92 -46 -231 -116 -311 -157 -204 -105 -386 -190
-520 -244 -126 -52 -296 -158 -336 -210 l-24 -32 0 -456 0 -457 1165 0 1164 0
25 25 c32 32 69 32 94 0 l20 -25 1166 0 1166 0 0 358 -1 357 -25 -70 c-14 -38
-30 -85 -36 -103 -19 -65 -18 -25 1 54 32 127 46 198 43 217 -1 9 2 17 7 17 5
0 9 33 10 73 1 65 -1 76 -21 93 -18 15 -20 16 -9 2 19 -26 -2 -22 -25 4 -27
30 -136 99 -246 156 -51 27 -167 88 -257 136 -90 48 -198 104 -240 123 -42 19
-116 59 -166 88 -49 29 -120 68 -157 86 -37 18 -65 36 -62 41 3 4 -3 5 -12 1
-12 -4 -15 -3 -10 5 5 8 1 10 -10 5 -12 -4 -15 -3 -10 5 5 8 1 10 -10 5 -12
-4 -15 -3 -10 5 5 8 1 10 -10 5 -12 -4 -15 -3 -10 5 5 8 1 10 -10 5 -12 -4
-15 -3 -10 5 4 7 2 12 -3 12 -17 0 -13 -25 10 -54 11 -14 17 -30 14 -36 -9
-15 -25 -12 -25 5 0 8 -6 15 -14 15 -10 0 -13 -9 -11 -30 2 -16 0 -30 -5 -30
-6 0 -10 10 -11 23 0 12 -2 30 -4 39 -2 11 2 15 13 12 10 -3 9 0 -3 6 -11 6
-26 23 -32 37 -15 32 -17 46 -4 38 6 -3 -2 23 -16 57 -67 166 -134 262 -208
298 -25 12 -49 19 -53 15 -4 -4 -7 -129 -8 -278 0 -259 -1 -275 -23 -327 -35
-86 -70 -158 -78 -162 -5 -1 -19 -24 -32 -50 -13 -27 -30 -48 -38 -48 -8 0
-11 -4 -8 -10 3 -5 -8 -25 -24 -42 -17 -18 -31 -38 -31 -44 0 -7 -6 -14 -14
-17 -9 -4 -12 -14 -9 -26 3 -12 1 -21 -6 -21 -6 0 -11 -7 -11 -16 0 -11 -6
-14 -21 -9 -18 6 -20 4 -14 -14 4 -14 2 -21 -6 -21 -7 0 -9 -3 -6 -7 9 -9 -12
-33 -29 -33 -8 0 -14 5 -14 11 0 6 7 9 15 5 9 -3 15 0 15 9 0 18 -10 19 -32 2
-11 -9 -14 -18 -8 -27 9 -14 -34 -80 -52 -80 -11 0 -81 -51 -86 -62 -5 -11
-36 -10 -48 2 -8 8 -37 17 -67 19 -5 1 -5 6 -1 12 5 8 -3 10 -25 7 -24 -4 -35
0 -42 14 -5 10 -6 19 -2 20 4 0 13 2 18 3 6 2 19 3 29 4 19 1 18 2 -2 24 -12
13 -19 27 -15 30 3 4 1 7 -6 7 -6 0 -11 -6 -10 -12 3 -20 -12 -49 -22 -42 -5
3 -9 -1 -9 -8 0 -8 -5 -19 -12 -26 -15 -15 -49 3 -42 23 4 10 0 15 -12 16 -18
0 -17 1 1 9 32 14 45 11 45 -7 1 -17 1 -17 11 0 5 9 7 23 4 30 -4 6 1 3 9 -7
14 -17 16 -17 16 -4 0 9 -5 20 -10 23 -6 4 -8 11 -4 16 3 5 10 7 15 4 5 -4 9
-1 9 4 0 6 -5 11 -11 11 -7 0 -9 10 -5 26 6 21 4 25 -8 21 -9 -4 -16 -2 -16 3
0 5 -13 16 -30 25 -33 17 -39 33 -15 40 46 15 51 18 34 22 -20 5 -32 40 -17
49 5 3 7 12 4 19 -3 8 3 17 14 20 10 3 21 17 24 31 4 14 18 36 31 50 l24 24
-25 19 c-24 19 -24 20 -5 30 13 7 17 17 14 31 -3 12 0 20 7 20 9 0 9 4 -1 17
-11 13 -11 17 -1 20 6 3 12 20 12 39 0 21 5 33 12 32 6 -2 13 6 15 17 3 11 7
27 10 35 3 8 5 19 4 24 -1 5 6 17 15 27 9 10 14 25 11 34 -4 8 -2 15 2 15 15
0 22 33 9 41 -6 4 -15 6 -19 3 -4 -2 -14 5 -22 17 -11 14 -17 17 -22 8 -12
-19 -35 32 -29 64 3 16 1 27 -5 27 -6 0 -10 -3 -10 -7 3 -21 -3 -22 -26 -7
-19 13 -23 20 -15 30 17 19 -26 40 -47 23 -22 -19 -43 -20 -50 -3 -3 10 -13
12 -27 8 -11 -4 -18 -3 -14 1 4 4 3 16 -3 27 -7 14 -7 23 1 33 7 8 9 19 5 24
-3 6 0 21 7 33 7 13 11 28 10 35 -1 6 2 14 7 18 14 8 2 35 -16 35 -8 0 -11 5
-8 10 5 8 11 8 19 1 9 -7 19 -5 36 6 13 9 46 20 74 24 56 9 82 29 72 55 -5 14
-15 16 -59 11 -46 -6 -55 -4 -76 18 -13 14 -29 25 -36 25 -7 0 -18 6 -24 14
-10 11 -8 17 9 29 24 16 59 12 67 -9 4 -10 10 -8 24 9 10 12 18 19 19 14 0 -4
15 -1 33 7 47 19 157 31 157 17 0 -6 13 -11 28 -11 16 0 42 -6 58 -14 16 -7
41 -17 57 -20 23 -6 27 -3 27 16 -1 13 -9 33 -20 46 -19 22 -23 23 -132 18
-62 -4 -135 -7 -163 -8 -27 -1 -53 -6 -56 -11 -10 -14 -29 1 -29 22 0 11 -15
25 -40 36 -24 11 -40 25 -40 35 0 29 12 31 36 5 29 -32 76 -33 104 -3 24 27
25 31 3 66 -22 34 -51 60 -80 72 -13 5 -23 16 -23 24 0 7 -7 19 -15 26 -8 7
-15 23 -15 35 0 13 -12 46 -27 75 -23 44 -26 62 -25 135 0 47 5 93 11 102 5
10 10 61 10 113 1 72 6 103 20 131 24 45 22 146 -3 194 -9 17 -16 42 -16 58 0
15 -5 27 -11 27 -5 0 -15 14 -20 30 -7 19 -18 30 -29 30 -12 0 -21 10 -25 28
-3 16 -26 49 -51 73 -48 47 -46 46 -179 48 -86 2 -120 17 -121 54 -1 15 3 27
7 27 13 0 48 37 42 44 -3 3 2 8 11 12 9 3 16 11 16 17 0 5 10 24 23 41 37 49
42 63 15 39 -13 -13 -31 -23 -39 -23 -11 1 -10 4 4 14 9 7 17 19 17 26 0 10
-4 9 -17 -1 -17 -13 -17 -13 0 7 21 25 22 44 2 44 -8 0 -15 4 -15 9 0 5 -9 11
-20 14 -16 4 -18 9 -11 29 5 12 14 22 20 20 6 -1 11 2 11 8 0 5 -4 10 -10 10
-5 0 -10 7 -10 15 0 17 12 19 26 5 13 -13 13 18 0 38 -5 8 0 12 13 12 12 0 21
7 21 15 0 8 12 21 26 28 18 9 23 16 15 21 -7 4 -18 3 -26 -4 -8 -6 -16 -7 -19
-2 -3 6 5 17 19 26 29 19 39 20 29 5 -4 -7 7 -1 25 12 38 28 39 38 5 36 -15
-1 -29 4 -31 11 -3 6 2 12 11 12 9 0 16 -5 16 -11 0 -8 5 -8 15 1 8 7 15 9 15
6 0 -4 7 -1 15 8 18 18 20 33 2 18 -15 -12 -60 -4 -52 9 3 4 12 6 20 2 8 -3
15 0 15 6 0 7 8 8 25 1 26 -10 29 -7 26 22 -2 20 15 32 32 21 18 -11 49 -14
43 -4 -6 10 19 17 94 27 43 6 63 9 102 17 10 2 24 10 30 19 19 23 60 31 183
34 136 4 202 -11 281 -64 96 -64 207 -194 253 -297 7 -16 20 -43 28 -58 8 -16
16 -44 17 -62 2 -19 9 -41 16 -50 12 -14 12 -18 0 -25 -11 -7 -11 -16 2 -57 9
-27 21 -47 28 -45 8 2 10 -3 7 -13 -4 -9 -1 -15 9 -15 9 0 14 -6 11 -13 -3 -9
3 -13 17 -13 17 1 20 -4 18 -23 -3 -18 0 -22 12 -18 16 6 18 0 19 -63 0 -14
-3 -42 -7 -63 -3 -23 -2 -36 3 -32 15 8 21 -9 25 -69 4 -52 -5 -73 -18 -43 -3
6 -3 -24 1 -68 4 -44 7 -93 8 -110 6 -127 8 -132 15 -45 6 68 14 96 40 143
l32 57 -1 148 c-1 81 -2 156 -2 167 0 11 -1 29 0 40 1 71 -13 182 -24 195 -7
8 -13 29 -13 47 0 18 -5 38 -11 45 -46 56 -61 78 -61 88 0 7 -18 32 -40 57
-22 25 -40 50 -40 54 0 5 -7 9 -16 9 -8 0 -13 4 -9 9 3 5 1 12 -5 16 -6 4 -8
10 -5 15 3 4 -11 18 -30 30 -19 12 -33 25 -31 29 9 14 -61 79 -92 86 -17 3
-36 13 -43 21 -6 8 -20 14 -30 14 -11 0 -19 5 -19 10 0 6 -8 10 -18 10 -10 0
-27 8 -38 18 -62 57 -163 102 -286 127 -43 9 -95 22 -117 30 -48 17 -248 27
-316 16z m-491 -416 c-22 -16 -34 -19 -34 -7 0 10 43 32 49 26 3 -2 -4 -11
-15 -19z m-64 -40 c-7 -9 -15 -13 -17 -11 -7 7 7 26 19 26 6 0 6 -6 -2 -15z
m300 -965 c0 -5 -7 -10 -16 -10 -8 0 -12 5 -9 10 3 6 10 10 16 10 5 0 9 -4 9
-10z m120 -21 c12 -16 21 -31 19 -33 -14 -9 -62 -26 -74 -26 -12 0 -12 4 1 28
7 15 14 35 14 45 0 26 16 21 40 -14z m-253 -26 c-3 -10 -5 -4 -5 12 0 17 2 24
5 18 2 -7 2 -21 0 -30z m51 -430 c-2 -14 3 -17 25 -15 18 2 26 -1 22 -7 -3 -6
-1 -11 4 -11 6 0 11 4 11 10 0 5 9 14 20 20 16 9 22 7 27 -7 9 -25 29 -43 37
-35 4 3 4 0 1 -9 -3 -8 1 -33 9 -56 15 -42 12 -83 -6 -83 -6 0 -5 -6 2 -15 15
-18 4 -36 -18 -28 -14 5 -15 3 -4 -8 6 -7 12 -20 11 -29 0 -13 -1 -13 -6 0
-11 27 -29 38 -45 29 -21 -12 -78 17 -78 40 0 10 -3 21 -7 25 -4 4 -8 23 -8
42 -1 19 -4 34 -8 34 -4 0 -11 0 -16 0 -5 0 -7 -10 -3 -22 5 -20 4 -21 -11 -9
-20 16 -14 81 9 94 8 4 14 16 14 26 0 16 8 31 17 31 2 0 3 -8 1 -17z m542
-1003 c0 -5 -5 -10 -11 -10 -5 0 -7 5 -4 10 3 6 8 10 11 10 2 0 4 -4 4 -10z
m808 -654 c-60 -112 -216 -332 -299 -420 -53 -57 -119 -141 -149 -189 -41 -67
-74 -105 -149 -171 -53 -46 -114 -103 -136 -125 -21 -23 -42 -41 -46 -41 -3 0
-44 28 -91 63 -46 34 -118 87 -160 117 -41 30 -90 75 -109 99 -44 58 -109 134
-164 191 -28 29 -52 68 -68 110 -13 36 -47 108 -75 160 -54 102 -106 220 -99
226 2 2 26 -29 55 -69 28 -41 77 -98 109 -128 87 -80 301 -189 398 -203 l40
-6 -35 12 c-27 9 -31 12 -16 16 24 5 47 27 38 36 -4 4 6 3 21 -3 23 -9 31 -7
53 14 15 14 30 23 33 20 3 -4 -1 -10 -8 -14 -11 -7 -9 -11 5 -20 11 -6 15 -11
10 -11 -5 0 -3 -7 4 -15 11 -13 15 -13 21 -3 7 10 9 10 9 1 0 -7 5 -13 11 -13
5 0 7 5 4 10 -3 6 -4 10 -1 10 2 0 12 3 21 6 9 4 15 3 14 -2 -5 -28 2 -42 20
-37 10 3 22 0 25 -6 4 -6 -3 -13 -16 -15 -13 -3 -32 -7 -43 -9 -53 -12 60 -5
135 7 105 18 151 34 257 92 175 95 265 173 348 298 37 55 61 65 33 12z m1600
-247 c-3 -8 -12 1 -22 21 l-17 35 22 -21 c12 -12 19 -28 17 -35z m-2398 -39
c0 -5 -4 -10 -9 -10 -6 0 -13 5 -16 10 -3 6 1 10 9 10 9 0 16 -4 16 -10z
m-120 -4 c0 -2 -7 -6 -15 -10 -8 -3 -15 -1 -15 4 0 6 7 10 15 10 8 0 15 -2 15
-4z m255 -46 c3 -5 1 -10 -4 -10 -19 0 -12 -17 12 -28 18 -9 15 -9 -18 -5 -22
3 -44 10 -50 16 -7 7 -4 8 9 3 17 -6 17 -5 5 11 -8 9 -9 14 -2 10 6 -4 14 -3
18 3 8 13 22 13 30 0z m-562 -375 c-4 -15 -36 -12 -41 3 -3 9 3 13 19 10 13
-1 23 -7 22 -13z"/>
<path d="M2258 783 c7 -3 16 -2 19 1 4 3 -2 6 -13 5 -11 0 -14 -3 -6 -6z"/>
<path d="M2318 773 c6 -2 18 -2 25 0 6 3 1 5 -13 5 -14 0 -19 -2 -12 -5z"/>
<path d="M1965 4000 c-19 -8 -19 -9 3 -9 12 -1 22 4 22 9 0 6 -1 10 -2 9 -2 0
-12 -4 -23 -9z"/>
<path d="M1955 3970 c-16 -7 -17 -9 -3 -9 9 -1 20 4 23 9 7 11 7 11 -20 0z"/>
<path d="M2535 3711 c-13 -13 -17 -14 -24 -2 -6 9 -15 11 -27 6 -11 -4 -26 -9
-34 -9 -8 -1 -24 -19 -34 -40 -19 -38 -19 -39 0 -53 10 -8 18 -18 17 -23 -1
-4 7 -16 17 -25 11 -10 20 -24 20 -32 0 -10 6 -12 20 -8 27 9 36 -18 21 -61
-7 -19 -13 -48 -13 -64 -1 -17 -5 -30 -10 -30 -5 0 -7 -4 -3 -9 3 -5 -2 -16
-10 -24 -17 -17 -20 -47 -6 -47 6 0 19 -17 31 -37 12 -21 36 -49 53 -63 17
-14 28 -19 24 -12 -10 15 3 15 40 0 15 -6 33 -12 38 -13 6 -2 28 -8 50 -13 39
-11 111 -10 122 2 3 3 -10 13 -30 21 -43 18 -48 35 -11 35 21 0 24 3 19 21 -5
14 -3 19 4 15 5 -4 18 -2 28 3 10 6 35 18 56 27 50 22 42 28 -13 9 -60 -21
-83 -20 -71 3 7 13 6 23 -2 32 -10 10 -9 12 5 7 22 -8 33 32 11 40 -13 5 -12
8 6 15 26 9 53 -2 93 -40 15 -14 30 -23 33 -20 10 10 -46 68 -92 94 -24 15
-42 28 -41 30 2 1 17 10 32 18 25 13 33 13 56 1 15 -8 39 -28 53 -45 28 -33
37 -37 37 -17 0 30 -72 96 -146 133 -92 46 -86 50 77 49 106 0 142 6 107 17
-6 2 -12 14 -13 26 -3 40 -93 96 -125 77 -6 -4 -25 -2 -43 4 -17 6 -94 12
-169 14 -115 4 -139 2 -153 -12z m233 -342 c-2 -6 -8 -10 -13 -10 -5 0 -11 4
-13 10 -2 6 4 11 13 11 9 0 15 -5 13 -11z m-100 -32 c7 -18 12 -36 12 -40 0
-13 -51 -7 -66 7 -15 16 -19 30 -6 22 5 -3 15 6 22 19 18 33 24 31 38 -8z"/>
<path d="M3401 3349 c-13 -11 -22 -22 -19 -24 2 -3 15 6 28 20 28 30 24 32 -9
4z"/>
<path d="M3332 3130 c0 -8 4 -26 8 -40 6 -20 8 -21 8 -5 0 11 -3 29 -8 40 -5
12 -8 14 -8 5z"/>
<path d="M2463 2704 c-27 -12 -11 -23 30 -21 23 1 42 7 42 12 0 11 -52 17 -72
9z"/>
</g>
</svg>
